<svg xmlns="http://www.w3.org/2000/svg" viewBox="0 0 512 512" width="512" height="512">
  <defs>
    <radialGradient id="core" cx="32%" cy="28%" r="68%">
      <stop offset="0%" stop-color="#7cf9ff"/>
      <stop offset="50%" stop-color="#0ea5e9"/>
      <stop offset="100%" stop-color="#6d28d9"/>
    </radialGradient>
    <linearGradient id="edge" x1="0%" y1="0%" x2="100%" y2="100%">
      <stop offset="0%" stop-color="#f472b6"/>
      <stop offset="45%" stop-color="#22d3ee"/>
      <stop offset="100%" stop-color="#c4b5fd"/>
    </linearGradient>
    <linearGradient id="arc" x1="0%" y1="0%" x2="100%" y2="0%">
      <stop offset="0%" stop-color="#fde047"/>
      <stop offset="40%" stop-color="#22d3ee"/>
      <stop offset="100%" stop-color="#e879f9"/>
    </linearGradient>
    <filter id="bloom" x="-45%" y="-45%" width="190%" height="190%">
      <feGaussianBlur in="SourceGraphic" stdDeviation="12" result="b"/>
      <feColorMatrix in="b" type="matrix" values="1 0 0 0 0  0 1 0 0 0  0 0 1 0 0  0 0 0 0.8 0" result="g"/>
      <feMerge>
        <feMergeNode in="g"/>
        <feMergeNode in="SourceGraphic"/>
      </feMerge>
    </filter>
    <filter id="soft" x="-30%" y="-30%" width="160%" height="160%">
      <feGaussianBlur stdDeviation="8" result="s"/>
      <feMerge>
        <feMergeNode in="s"/>
        <feMergeNode in="SourceGraphic"/>
      </feMerge>
    </filter>
  </defs>
  <g transform="translate(256,256)">
    <circle r="138" fill="url(#core)" opacity="0.22" filter="url(#soft)"/>
    <circle r="108" fill="none" stroke="url(#edge)" stroke-width="2.5" opacity="0.9" filter="url(#bloom)"/>
    <circle r="96" fill="url(#core)" opacity="0.4"/>
    <circle cx="0" cy="-118" r="5" fill="url(#edge)" filter="url(#bloom)"/>
    <rect x="-14" y="-132" width="28" height="16" rx="6" fill="#a5b4fc" stroke="#e0e7ff" stroke-width="2" filter="url(#bloom)"/>
    <g stroke="#f1f5f9" stroke-width="4" stroke-linecap="round" opacity="0.88">
      <line x1="0" y1="-96" x2="0" y2="-84" transform="rotate(0)"/>
      <line x1="0" y1="-96" x2="0" y2="-84" transform="rotate(30)"/>
      <line x1="0" y1="-96" x2="0" y2="-84" transform="rotate(60)"/>
      <line x1="0" y1="-96" x2="0" y2="-84" transform="rotate(90)"/>
      <line x1="0" y1="-96" x2="0" y2="-84" transform="rotate(120)"/>
      <line x1="0" y1="-96" x2="0" y2="-84" transform="rotate(150)"/>
      <line x1="0" y1="-96" x2="0" y2="-84" transform="rotate(180)"/>
      <line x1="0" y1="-96" x2="0" y2="-84" transform="rotate(210)"/>
      <line x1="0" y1="-96" x2="0" y2="-84" transform="rotate(240)"/>
      <line x1="0" y1="-96" x2="0" y2="-84" transform="rotate(270)"/>
      <line x1="0" y1="-96" x2="0" y2="-84" transform="rotate(300)"/>
      <line x1="0" y1="-96" x2="0" y2="-84" transform="rotate(330)"/>
    </g>
    <path fill="none" stroke="url(#arc)" stroke-width="11" stroke-linecap="round" filter="url(#bloom)"
      d="M 0,-76 A 76 76 0 1 1 -24.6,72.1"/>
    <circle r="5" fill="#f8fafc" filter="url(#bloom)"/>
    <polygon points="0,-70 6,6 -6,6" fill="#fef08a" stroke="#f472b6" stroke-width="2" stroke-linejoin="round" transform="rotate(48)" filter="url(#bloom)"/>
    <g filter="url(#bloom)">
      <g transform="rotate(-38)">
        <circle cx="0" cy="-88" r="7" fill="#fde047" stroke="#facc15" stroke-width="2"/>
        <line x1="0" y1="-95" x2="0" y2="-118" stroke="#94a3b8" stroke-width="3" stroke-linecap="round"/>
        <rect x="-26" y="-138" width="52" height="16" rx="8" fill="#22d3ee"/>
      </g>
      <g transform="rotate(112)">
        <circle cx="0" cy="-88" r="7" fill="#22d3ee" stroke="#67e8f9" stroke-width="2"/>
        <line x1="0" y1="-95" x2="0" y2="-118" stroke="#94a3b8" stroke-width="3" stroke-linecap="round"/>
        <rect x="-26" y="-138" width="52" height="16" rx="8" fill="#f472b6"/>
      </g>
      <g transform="rotate(218)">
        <circle cx="0" cy="-88" r="7" fill="#e879f9" stroke="#f0abfc" stroke-width="2"/>
        <line x1="0" y1="-95" x2="0" y2="-118" stroke="#94a3b8" stroke-width="3" stroke-linecap="round"/>
        <rect x="-26" y="-138" width="52" height="16" rx="8" fill="#fde047"/>
      </g>
    </g>
  </g>
</svg>
